<svg width="629" height="185" viewBox="0 0 629 185" fill="none" xmlns="http://www.w3.org/2000/svg">
<path d="M47.8551 46.85C42.7217 46.85 38.5217 45.45 35.2551 42.65C39.6884 39.6167 44.3551 35.65 49.2551 30.75C54.3884 25.85 59.6384 20.0167 65.0051 13.25C65.4717 13.25 65.7051 13.8333 65.7051 15L63.9551 25.15C62.7884 32.3833 60.6884 37.8667 57.6551 41.6C54.6217 45.1 51.3551 46.85 47.8551 46.85ZM14.2551 174.25C5.38841 174.25 0.955078 167.833 0.955078 155C0.955078 135.633 7.95508 110.083 21.9551 78.35C21.9551 77.4167 22.5384 75.6667 23.7051 73.1C25.1051 70.5333 26.1551 68.9 26.8551 68.2C28.4884 66.5667 30.7051 65.75 33.5051 65.75C41.6717 65.75 46.1051 67.3833 46.8051 70.65C43.0717 76.7167 39.4551 83.7167 35.9551 91.65C32.6884 99.5833 29.4217 108.333 26.1551 117.9C22.6551 128.167 20.0884 136.683 18.4551 143.45C17.0551 149.983 16.3551 155.233 16.3551 159.2C16.3551 165.033 17.8717 167.95 20.9051 167.95C23.0051 167.95 25.6884 166.667 28.9551 164.1C31.5217 162 33.2717 160.483 34.2051 159.55C35.3717 158.617 36.4217 157.8 37.3551 157.1C38.2884 157.1 38.7551 157.567 38.7551 158.5C38.7551 161.067 35.3717 164.333 28.6051 168.3C21.8384 172.267 17.0551 174.25 14.2551 174.25ZM65.5902 177.05C59.7569 177.05 54.6236 176 50.1902 173.9C45.9902 171.8 43.8902 169.817 43.8902 167.95C70.7236 162.35 84.1402 155.583 84.1402 147.65C84.1402 146.017 80.9902 142.4 74.6902 136.8C62.5569 126.067 56.4902 114.05 56.4902 100.75C56.4902 91.1833 62.4402 81.7333 74.3402 72.4C86.7069 62.6 97.9069 57.7 107.94 57.7C109.574 57.7 112.84 60.15 117.74 65.05C122.64 69.95 125.09 73.1 125.09 74.5C125.09 75.6667 124.507 76.25 123.34 76.25C120.774 75.7833 118.674 75.4333 117.04 75.2C115.407 74.7333 114.24 74.5 113.54 74.5C103.04 74.5 92.1902 78.35 80.9902 86.05C70.0236 93.75 64.5402 101.567 64.5402 109.5C64.5402 110.9 70.0236 118.017 80.9902 130.85C91.9569 143.217 97.4402 151.733 97.4402 156.4C97.4402 161.067 94.1736 165.617 87.6402 170.05C84.1402 172.383 80.4069 174.133 76.4402 175.3C72.7069 176.467 69.0902 177.05 65.5902 177.05ZM132.484 175.65C122.217 175.65 117.084 170.167 117.084 159.2C117.084 149.4 120.351 136.567 126.884 120.7C129.451 114.633 132.017 108.567 134.584 102.5C137.151 96.4333 140.067 89.55 143.334 81.85C135.401 78.8167 131.434 74.2667 131.434 68.2C131.434 66.3333 131.901 65.05 132.834 64.35C136.334 65.9833 141.701 67.15 148.934 67.85C156.634 50.5833 160.484 39.6167 160.484 34.95C160.484 29.8167 159.551 27.25 157.684 27.25L150.684 29C149.984 29 149.634 28.65 149.634 27.95C149.634 26.0833 151.034 24.6833 153.834 23.75C156.634 22.5833 158.734 22 160.134 22C170.401 22 175.534 27.8333 175.534 39.5C175.534 46.2667 173.434 55.1333 169.234 66.1C170.167 67.0333 174.367 67.5 181.834 67.5C189.534 67.5 195.367 66.6833 199.334 65.05C203.067 63.1833 205.751 62.25 207.384 62.25C208.084 62.25 208.434 62.4833 208.434 62.95C208.434 63.65 207.851 64.5833 206.684 65.75C201.784 69.95 195.951 73.5667 189.184 76.6C182.651 79.6333 175.067 81.7333 166.434 82.9H165.384C165.151 82.9 164.801 83.0167 164.334 83.25C163.867 83.25 162.934 83.4833 161.534 83.95C140.301 126.183 129.684 153.017 129.684 164.45C129.684 168.183 131.084 170.05 133.884 170.05L143.684 167.95L144.034 168.3C144.034 173.2 140.184 175.65 132.484 175.65ZM237.082 184.75C221.682 184.75 208.849 179.617 198.582 169.35C188.549 159.317 183.532 146.367 183.532 130.5C183.532 109.5 191.699 88.9667 208.032 68.9C224.365 48.3667 244.782 31.8 269.282 19.2C294.249 6.59999 318.282 0.299992 341.382 0.299992C357.715 0.299992 370.782 3.56666 380.582 10.1C390.382 16.4 395.282 25.0333 395.282 36C395.282 41.6 392.832 49.5333 387.932 59.8C388.865 62.3667 389.332 66.2167 389.332 71.35C389.332 93.9833 376.732 116.5 351.532 138.9C331.932 155.933 313.732 167.717 296.932 174.25C279.899 181.25 259.949 184.75 237.082 184.75ZM253.182 175.65C268.582 175.65 285.382 171.567 303.582 163.4C321.549 155.233 337.299 143.683 350.832 128.75C364.832 113.117 372.649 96.55 374.282 79.05C362.382 92.35 346.515 104.25 326.682 114.75C325.049 115.45 324.232 115.567 324.232 115.1C324.232 115.333 327.499 112.767 334.032 107.4C351.999 92.2333 365.299 79.2833 373.932 68.55C372.299 59.45 367.865 51.5167 360.632 44.75C353.632 37.75 344.882 32.7333 334.382 29.7C332.049 29 329.132 28.5333 325.632 28.3C322.365 28.0667 318.049 27.8333 312.682 27.6C308.949 27.1333 305.449 26.7833 302.182 26.55C299.149 26.3167 297.049 26.0833 295.882 25.85L296.932 25.15C305.332 22.5833 314.782 21.3 325.282 21.3C336.482 21.3 347.799 24.1 359.232 29.7C370.665 34.8333 379.065 42.0667 384.432 51.4C386.065 47.4333 386.882 43.2333 386.882 38.8C386.882 28.7667 382.682 20.8333 374.282 15C366.115 8.93333 355.149 5.89999 341.382 5.89999C320.149 5.89999 298.915 11.6167 277.682 23.05C256.215 34.25 238.365 49.4167 224.132 68.55C209.899 87.6833 202.782 107.283 202.782 127.35C202.782 142.75 207.215 154.65 216.082 163.05C225.182 171.45 237.549 175.65 253.182 175.65ZM400.119 169.7C398.019 169.7 395.686 169.117 393.119 167.95C390.552 166.783 389.269 165.383 389.269 163.75C389.269 159.783 393.119 145.783 400.819 121.75C408.519 97.4833 412.369 79.2833 412.369 67.15C412.369 63.4167 410.736 61.3167 407.469 60.85C404.202 60.3833 402.569 59.6833 402.569 58.75C402.569 56.65 404.319 55.6 407.819 55.6C423.452 55.6 431.269 62.0167 431.269 74.85C431.269 78.5833 427.419 92.35 419.719 116.15C432.319 95.6167 446.319 81.5 461.719 73.8C465.686 65.4 471.169 61.2 478.169 61.2C484.936 61.2 488.669 61.7833 489.369 62.95C489.136 62.7167 488.669 63.0667 487.969 64C487.269 64.9333 486.452 65.9833 485.519 67.15C481.786 72.5167 478.519 77.7667 475.719 82.9C472.919 87.8 471.402 91.65 471.169 94.45C471.169 100.75 473.386 104.6 477.819 106C478.286 106.233 478.752 106.35 479.219 106.35C479.919 106.35 480.269 106.583 480.269 107.05C480.269 108.917 477.936 109.85 473.269 109.85C468.836 109.85 464.986 108.1 461.719 104.6C459.852 102.5 458.569 100.283 457.869 97.95C457.169 95.3833 456.819 92.9333 456.819 90.6C456.819 86.8667 457.402 83.4833 458.569 80.45C452.736 84.8833 447.486 89.55 442.819 94.45C438.152 99.1167 433.836 103.783 429.869 108.45C422.402 118.017 417.152 126.533 414.119 134C411.319 141.233 409.336 147.417 408.169 152.55C406.769 158.15 405.602 162.467 404.669 165.5C403.736 168.3 402.219 169.7 400.119 169.7ZM525.687 46.85C520.554 46.85 516.354 45.45 513.087 42.65C517.52 39.6167 522.187 35.65 527.087 30.75C532.22 25.85 537.47 20.0167 542.837 13.25C543.304 13.25 543.537 13.8333 543.537 15L541.787 25.15C540.62 32.3833 538.52 37.8667 535.487 41.6C532.454 45.1 529.187 46.85 525.687 46.85ZM492.087 174.25C483.22 174.25 478.787 167.833 478.787 155C478.787 135.633 485.787 110.083 499.787 78.35C499.787 77.4167 500.37 75.6667 501.537 73.1C502.937 70.5333 503.987 68.9 504.687 68.2C506.32 66.5667 508.537 65.75 511.337 65.75C519.504 65.75 523.937 67.3833 524.637 70.65C520.904 76.7167 517.287 83.7167 513.787 91.65C510.52 99.5833 507.254 108.333 503.987 117.9C500.487 128.167 497.92 136.683 496.287 143.45C494.887 149.983 494.187 155.233 494.187 159.2C494.187 165.033 495.704 167.95 498.737 167.95C500.837 167.95 503.52 166.667 506.787 164.1C509.354 162 511.104 160.483 512.037 159.55C513.204 158.617 514.254 157.8 515.187 157.1C516.12 157.1 516.587 157.567 516.587 158.5C516.587 161.067 513.204 164.333 506.437 168.3C499.67 172.267 494.887 174.25 492.087 174.25ZM540.33 171.8C535.663 171.8 531.346 169.7 527.38 165.5C523.646 161.067 521.78 155.467 521.78 148.7C521.78 141.933 525.863 131.433 534.03 117.2C542.196 103.2 552.23 90.6 564.13 79.4C575.796 68.4333 585.83 62.95 594.23 62.95H597.73C606.363 62.95 613.713 64.7 619.78 68.2C625.846 71.4667 628.88 75.9 628.88 81.5C628.88 84.0667 627.83 85.35 625.73 85.35C625.03 85.35 624.68 85 624.68 84.3C620.946 75.6667 615.23 71.35 607.53 71.35C594.23 71.35 579.063 82.3167 562.03 104.25C544.996 125.717 536.48 142.283 536.48 153.95C536.48 158.383 537.646 160.6 539.98 160.6C550.48 160.6 572.53 136.917 606.13 89.55C605.896 89.7833 606.013 89.7833 606.48 89.55C607.18 89.0833 607.763 88.85 608.23 88.85C609.396 88.85 611.846 90.0167 615.58 92.35C619.313 94.45 621.18 96.3167 621.18 97.95C621.18 97.95 620.713 98.7667 619.78 100.4C618.846 101.8 617.68 104.017 616.28 107.05C612.546 114.983 609.63 122.8 607.53 130.5C605.663 137.967 604.73 144.5 604.73 150.1C604.73 162.467 607.763 168.65 613.83 168.65L617.33 167.95L618.03 168.3C618.03 170.4 615.113 171.45 609.28 171.45C603.68 171.45 599.013 168.883 595.28 163.75C591.78 158.383 590.03 151.267 590.03 142.4C590.03 133.767 591.546 124.2 594.58 113.7C594.346 114.4 593.53 115.683 592.13 117.55C590.73 119.417 588.513 122.683 585.48 127.35C566.346 156.983 551.296 171.8 540.33 171.8Z" fill="white"/>
</svg>
