<svg width="116" height="30" viewBox="0 0 116 30" fill="none" xmlns="http://www.w3.org/2000/svg">
<path d="M2.9834 7.52409H5.94837V25.6772H2.9834V7.52409ZM15.4427 24.9516C15.8771 24.9516 16.307 24.8923 16.7324 24.7737C17.1579 24.6459 17.5391 24.4634 17.8759 24.226C18.2127 23.9796 18.4831 23.683 18.6869 23.3362C18.8908 22.9803 18.9927 22.5695 18.9927 22.1041C18.9927 21.5474 18.8509 21.0545 18.5673 20.6255C18.2925 20.1875 17.9291 19.7905 17.477 19.4345C17.025 19.0694 16.5064 18.7272 15.9214 18.4078C15.3452 18.0883 14.7558 17.7689 14.153 17.4494C13.5503 17.13 12.9564 16.7969 12.3714 16.4501C11.7952 16.0941 11.2811 15.7017 10.8291 15.2727C10.377 14.8346 10.0091 14.3509 9.72548 13.8216C9.4507 13.2831 9.31332 12.667 9.31332 11.9734C9.31332 11.2798 9.43741 10.6363 9.68559 10.0431C9.94264 9.44984 10.3149 8.93875 10.8025 8.50978C11.29 8.07169 11.8883 7.72944 12.5974 7.48302C13.3154 7.2366 14.1353 7.1134 15.0571 7.1134C15.8904 7.1134 16.6349 7.20466 17.2909 7.38719C17.9468 7.56974 18.523 7.83898 19.0193 8.19492C19.5157 8.55085 19.9367 8.98894 20.2825 9.50917C20.6281 10.0294 20.9074 10.6318 21.1201 11.3163L19.6043 12.0282C19.4271 11.4714 19.201 10.9649 18.9263 10.5086C18.6515 10.0431 18.3235 9.64608 17.9424 9.31751C17.5612 8.98894 17.118 8.73795 16.6128 8.56456C16.1164 8.38201 15.5535 8.29075 14.9242 8.29075C14.3657 8.29075 13.8783 8.3729 13.4616 8.53717C13.045 8.69233 12.6949 8.90224 12.4113 9.16692C12.1365 9.42248 11.9282 9.71452 11.7864 10.0431C11.6534 10.3625 11.5869 10.6911 11.5869 11.0288C11.5869 11.5034 11.7287 11.9414 12.0124 12.343C12.296 12.7355 12.6727 13.1097 13.1425 13.4656C13.6123 13.8124 14.1442 14.1501 14.738 14.4787C15.3408 14.8073 15.9524 15.1404 16.5729 15.4781C17.1934 15.8158 17.8005 16.1671 18.3944 16.5322C18.9972 16.8973 19.5334 17.2989 20.0032 17.7369C20.473 18.1659 20.8497 18.6405 21.1334 19.1607C21.417 19.6718 21.5589 20.2468 21.5589 20.8857C21.5589 21.6067 21.4259 22.2866 21.16 22.9255C20.894 23.5553 20.4952 24.1074 19.9633 24.582C19.4315 25.0475 18.7711 25.4171 17.9823 25.6909C17.1934 25.9647 16.2759 26.1016 15.23 26.1016C14.3791 26.1016 13.6212 26.0058 12.9564 25.8141C12.2916 25.6225 11.7021 25.3441 11.188 24.979C10.6828 24.6139 10.2485 24.1713 9.88504 23.6511C9.52161 23.1217 9.22466 22.5194 8.99421 21.844L10.5764 21.1732C10.7626 21.7664 11.0108 22.2958 11.321 22.7612C11.6401 23.2267 12.008 23.6237 12.4245 23.9523C12.8412 24.2717 13.3021 24.5181 13.8073 24.6915C14.3214 24.8649 14.8666 24.9516 15.4427 24.9516ZM38.4457 7.52409V8.70144H32.0636V25.6772H29.0988V8.70144H22.7167V7.52409H38.4457Z" fill="black"/>
<path d="M48.4269 26.6635C46.2703 26.6635 44.4731 25.9233 43.0353 24.443C41.6303 22.9962 40.9277 21.1289 40.9277 18.8411C40.9277 15.8131 42.0714 12.8523 44.3587 9.95885C46.646 6.9981 49.5052 4.60932 52.9362 2.79249C56.4325 0.975673 59.7982 0.0672607 63.0331 0.0672607C65.3204 0.0672607 67.1503 0.53829 68.5227 1.48035C69.8951 2.38876 70.5813 3.63362 70.5813 5.21493C70.5813 6.0224 70.2382 7.16633 69.552 8.6467C69.6827 9.0168 69.748 9.57193 69.748 10.3121C69.748 13.5757 67.9835 16.8224 64.4545 20.0523C61.7097 22.5084 59.161 24.2074 56.8083 25.1495C54.4229 26.1588 51.6291 26.6635 48.4269 26.6635ZM50.6815 25.3514C52.8382 25.3514 55.1908 24.7626 57.7396 23.585C60.2556 22.4074 62.4613 20.742 64.3565 18.5888C66.317 16.3346 67.4117 13.9458 67.6404 11.4224C65.9739 13.3402 63.752 15.056 60.9745 16.5701C60.7458 16.671 60.6314 16.6878 60.6314 16.6205C60.6314 16.6542 61.0889 16.2841 62.0038 15.5103C64.5198 13.3233 66.3824 11.456 67.5914 9.90838C67.3627 8.59623 66.7418 7.45231 65.7289 6.47661C64.7486 5.46726 63.5232 4.7439 62.0528 4.30651C61.726 4.20558 61.3176 4.13829 60.8275 4.10465C60.37 4.071 59.7655 4.03736 59.0139 4.00371C58.4911 3.93642 58.001 3.88595 57.5435 3.85231C57.1187 3.81866 56.8246 3.78502 56.6613 3.75137L56.8083 3.65044C57.9846 3.28035 59.308 3.0953 60.7784 3.0953C62.3469 3.0953 63.9317 3.49904 65.5328 4.30651C67.1339 5.0467 68.3103 6.08969 69.0618 7.43549C69.2906 6.86352 69.4049 6.25792 69.4049 5.61866C69.4049 4.17194 68.8167 3.02801 67.6404 2.18689C66.4967 1.31212 64.961 0.874739 63.0331 0.874739C60.0596 0.874739 57.086 1.69904 54.1125 3.34764C51.1063 4.96259 48.6066 7.1495 46.6134 9.90838C44.6201 12.6673 43.6235 15.4934 43.6235 18.3869C43.6235 20.6074 44.2444 22.3233 45.486 23.5346C46.7604 24.7458 48.4922 25.3514 50.6815 25.3514Z" fill="black"/>
<path d="M75.2324 7.64128H81.3486C82.4035 7.64128 83.3298 7.75994 84.1274 7.99722C84.9252 8.22538 85.5899 8.54938 86.1217 8.96922C86.6538 9.38905 87.0524 9.89103 87.3185 10.4751C87.5932 11.0501 87.7307 11.6799 87.7307 12.3644C87.7307 12.9302 87.6243 13.4596 87.4116 13.9524C87.2076 14.4453 86.9152 14.8925 86.534 15.2941C86.1617 15.6865 85.7097 16.0288 85.1779 16.3208C84.6461 16.6038 84.0609 16.8274 83.4227 16.9916L89.8446 25.7944H86.4011L80.2716 17.2655H78.1975V25.7944H75.2324V7.64128ZM78.1975 16.3482H79.9127C80.5774 16.3482 81.189 16.2569 81.7475 16.0744C82.3147 15.8919 82.8024 15.6363 83.21 15.3078C83.6266 14.9701 83.9501 14.5639 84.1808 14.0893C84.4111 13.6147 84.5263 13.0808 84.5263 12.4876C84.5263 11.94 84.4332 11.438 84.2472 10.9817C84.0699 10.5253 83.8129 10.1375 83.476 9.81802C83.1479 9.48945 82.7536 9.23389 82.2926 9.05137C81.8406 8.86884 81.3442 8.77755 80.8034 8.77755H78.1975V16.3482ZM92.2512 7.64128H95.2163V25.7944H92.2512V7.64128ZM106.917 7.23059L115.213 25.7944H112.195L109.509 19.7434H101.944L99.1652 25.7944H97.676L106.172 7.23059H106.917ZM102.462 18.566H108.964L105.76 11.3787L102.462 18.566Z" fill="black"/>
</svg>
