<svg width="426" height="107" viewBox="0 0 426 107" fill="none" xmlns="http://www.w3.org/2000/svg">
<path d="M10.9566 26.8361H21.8452V91.5822H10.9566V26.8361ZM56.7124 88.9943C58.3075 88.9943 59.8862 88.7827 61.4487 88.3596C63.0112 87.9038 64.411 87.2528 65.648 86.4064C66.8849 85.5275 67.8778 84.4696 68.6265 83.2326C69.3752 81.9631 69.7495 80.4982 69.7495 78.8381C69.7495 76.8524 69.2287 75.0946 68.187 73.5646C67.1779 72.0021 65.8433 70.5861 64.1831 69.3166C62.523 68.0145 60.6187 66.7938 58.4702 65.6545C56.3543 64.5152 54.1896 63.3758 51.9761 62.2365C49.7625 61.0972 47.5816 59.909 45.4331 58.6721C43.3172 57.4025 41.4292 56.0028 39.7691 54.4728C38.1089 52.9103 36.758 51.1851 35.7163 49.2971C34.7072 47.3765 34.2027 45.1792 34.2027 42.7053C34.2027 40.2313 34.6584 37.9364 35.5698 35.8205C36.5138 33.7046 37.881 31.8817 39.6714 30.3517C41.4618 28.7892 43.659 27.5685 46.2632 26.6896C48.8999 25.8107 51.911 25.3713 55.2964 25.3713C58.3563 25.3713 61.0907 25.6968 63.4995 26.3478C65.9084 26.9989 68.0243 27.9592 69.8472 29.2287C71.6701 30.4982 73.2163 32.0607 74.4859 33.9162C75.7554 35.7717 76.7808 37.9201 77.562 40.3615L71.9956 42.9006C71.3446 40.9149 70.5145 39.1083 69.5054 37.4807C68.4963 35.8205 67.2918 34.4045 65.8921 33.2326C64.4924 32.0607 62.8648 31.1655 61.0093 30.5471C59.1864 29.896 57.1193 29.5705 54.8081 29.5705C52.7573 29.5705 50.967 29.8635 49.437 30.4494C47.9071 31.0028 46.6213 31.7515 45.5796 32.6955C44.5705 33.607 43.8055 34.6486 43.2847 35.8205C42.7964 36.9598 42.5523 38.1317 42.5523 39.3361C42.5523 41.0288 43.0731 42.5913 44.1148 44.0236C45.1564 45.4234 46.5399 46.758 48.2652 48.0275C49.9904 49.2645 51.9435 50.4689 54.1245 51.6408C56.3381 52.8127 58.5842 54.0008 60.8628 55.2053C63.1415 56.4097 65.3713 57.6629 67.5523 58.965C69.7658 60.2671 71.7352 61.6994 73.4605 63.2619C75.1857 64.7918 76.5692 66.4846 77.6109 68.34C78.6525 70.1629 79.1734 72.2137 79.1734 74.4924C79.1734 77.064 78.6851 79.4891 77.7085 81.7678C76.7319 84.0139 75.2671 85.9833 73.314 87.676C71.3609 89.3361 68.9357 90.6545 66.0386 91.631C63.1415 92.6076 59.7723 93.0959 55.9312 93.0959C52.8062 93.0959 50.023 92.7541 47.5816 92.0705C45.1402 91.3869 42.9754 90.3941 41.0874 89.092C39.2319 87.7899 37.6369 86.2111 36.3023 84.3557C34.9676 82.4676 33.8771 80.3192 33.0308 77.9103L38.8413 75.5178C39.5249 77.6336 40.4364 79.5217 41.5757 81.1818C42.7476 82.842 44.0985 84.258 45.6284 85.4299C47.1584 86.5692 48.8511 87.4481 50.7066 88.0666C52.5946 88.6851 54.5965 88.9943 56.7124 88.9943ZM141.189 26.8361V31.0353H117.751V91.5822H106.863V31.0353H83.4253V26.8361H141.189Z" fill="white"/>
<path d="M177.845 95.1C169.925 95.1 163.325 92.46 158.045 87.18C152.885 82.02 150.305 75.36 150.305 67.2C150.305 56.4 154.505 45.84 162.905 35.52C171.305 24.96 181.805 16.44 194.405 9.95999C207.245 3.48 219.605 0.239996 231.485 0.239996C239.885 0.239996 246.605 1.92 251.645 5.28C256.685 8.52 259.205 12.96 259.205 18.6C259.205 21.48 257.945 25.56 255.425 30.84C255.905 32.16 256.145 34.14 256.145 36.78C256.145 48.42 249.665 60 236.705 71.52C226.625 80.28 217.265 86.34 208.625 89.7C199.865 93.3 189.605 95.1 177.845 95.1ZM186.125 90.42C194.045 90.42 202.685 88.32 212.045 84.12C221.285 79.92 229.385 73.98 236.345 66.3C243.545 58.26 247.565 49.74 248.405 40.74C242.285 47.58 234.125 53.7 223.925 59.1C223.085 59.46 222.665 59.52 222.665 59.28C222.665 59.4 224.345 58.08 227.705 55.32C236.945 47.52 243.785 40.86 248.225 35.34C247.385 30.66 245.105 26.58 241.385 23.1C237.785 19.5 233.285 16.92 227.885 15.36C226.685 15 225.185 14.76 223.385 14.64C221.705 14.52 219.485 14.4 216.725 14.28C214.805 14.04 213.005 13.86 211.325 13.74C209.765 13.62 208.685 13.5 208.085 13.38L208.625 13.02C212.945 11.7 217.805 11.04 223.205 11.04C228.965 11.04 234.785 12.48 240.665 15.36C246.545 18 250.865 21.72 253.625 26.52C254.465 24.48 254.885 22.32 254.885 20.04C254.885 14.88 252.725 10.8 248.405 7.8C244.205 4.68 238.565 3.12 231.485 3.12C220.565 3.12 209.645 6.06 198.725 11.94C187.685 17.7 178.505 25.5 171.185 35.34C163.865 45.18 160.205 55.26 160.205 65.58C160.205 73.5 162.485 79.62 167.045 83.94C171.725 88.26 178.085 90.42 186.125 90.42Z" fill="white"/>
<path d="M276.285 27.2539H298.746C302.62 27.2539 306.022 27.6771 308.951 28.5234C311.881 29.3372 314.322 30.4928 316.275 31.9902C318.229 33.4876 319.693 35.278 320.67 37.3613C321.679 39.4121 322.184 41.6582 322.184 44.0996C322.184 46.1178 321.793 48.0059 321.012 49.7637C320.263 51.5215 319.189 53.1165 317.789 54.5488C316.422 55.9486 314.762 57.1693 312.809 58.2109C310.856 59.2201 308.707 60.0176 306.363 60.6035L329.947 92H317.301L294.791 61.5801H287.174V92H276.285V27.2539ZM287.174 58.3086H293.473C295.914 58.3086 298.16 57.9831 300.211 57.332C302.294 56.681 304.085 55.7695 305.582 54.5977C307.112 53.3932 308.3 51.9447 309.147 50.252C309.993 48.5592 310.416 46.6549 310.416 44.5391C310.416 42.5859 310.074 40.7956 309.391 39.168C308.74 37.5404 307.796 36.1569 306.559 35.0176C305.354 33.8457 303.906 32.9342 302.213 32.2832C300.553 31.6322 298.73 31.3066 296.744 31.3066H287.174V58.3086ZM338.785 27.2539H349.674V92H338.785V27.2539ZM392.643 25.7891L423.111 92H412.027L402.164 70.418H374.381L364.176 92H358.707L389.908 25.7891H392.643ZM376.285 66.2188H400.162L388.395 40.584L376.285 66.2188Z" fill="white"/>
</svg>
